<svg width="24" height="24" viewBox="0 0 24 24" fill="none" xmlns="http://www.w3.org/2000/svg">
<path d="M4 13H10C10.552 13 11 12.553 11 12V4C11 3.447 10.552 3 10 3H4C3.448 3 3 3.447 3 4V12C3 12.553 3.448 13 4 13ZM3 20C3 20.553 3.448 21 4 21H10C10.552 21 11 20.553 11 20V16C11 15.447 10.552 15 10 15H4C3.448 15 3 15.447 3 16V20ZM13 20C13 20.553 13.447 21 14 21H20C20.553 21 21 20.553 21 20V13C21 12.447 20.553 12 20 12H14C13.447 12 13 12.447 13 13V20ZM14 10H20C20.553 10 21 9.553 21 9V4C21 3.447 20.553 3 20 3H14C13.447 3 13 3.447 13 4V9C13 9.553 13.447 10 14 10Z" fill="white"/>
</svg>
