<svg width="24" height="24" viewBox="0 0 24 24" fill="none" xmlns="http://www.w3.org/2000/svg">
<path d="M8.25 5.75V12C8.25 14.0703 9.92969 15.75 12 15.75C14.0703 15.75 15.75 14.0703 15.75 12H12.625C12.2812 12 12 11.7188 12 11.375C12 11.0312 12.2812 10.75 12.625 10.75H15.75V9.5H12.625C12.2812 9.5 12 9.21875 12 8.875C12 8.53125 12.2812 8.25 12.625 8.25H15.75V7H12.625C12.2812 7 12 6.71875 12 6.375C12 6.03125 12.2812 5.75 12.625 5.75H15.75C15.75 3.67969 14.0703 2 12 2C9.92969 2 8.25 3.67969 8.25 5.75ZM17 11.375V12C17 14.7617 14.7617 17 12 17C9.23828 17 7 14.7617 7 12V10.4375C7 9.91797 6.58203 9.5 6.0625 9.5C5.54297 9.5 5.125 9.91797 5.125 10.4375V12C5.125 15.4805 7.71094 18.3555 11.0625 18.8125V20.125H9.1875C8.66797 20.125 8.25 20.543 8.25 21.0625C8.25 21.582 8.66797 22 9.1875 22H12H14.8125C15.332 22 15.75 21.582 15.75 21.0625C15.75 20.543 15.332 20.125 14.8125 20.125H12.9375V18.8125C16.2891 18.3555 18.875 15.4805 18.875 12V10.4375C18.875 9.91797 18.457 9.5 17.9375 9.5C17.418 9.5 17 9.91797 17 10.4375V11.375Z" fill="white"/>
</svg>
